<svg width="32" height="33" viewBox="0 0 32 33" fill="none" xmlns="http://www.w3.org/2000/svg">
<rect x="0.000457764" y="0.5" width="32" height="32" rx="16" fill="#F8F8F8"/>
<path d="M16.0205 7.41C12.7105 7.41 10.0205 10.1 10.0205 13.41V16.3C10.0205 16.91 9.76045 17.84 9.45045 18.36L8.30045 20.27C7.59045 21.45 8.08045 22.76 9.38045 23.2C13.6905 24.64 18.3405 24.64 22.6505 23.2C23.8605 22.8 24.3905 21.37 23.7305 20.27L22.5805 18.36C22.2805 17.84 22.0205 16.91 22.0205 16.3V13.41C22.0205 10.11 19.3205 7.41 16.0205 7.41Z" stroke="#1C1C1C" stroke-width="1.5" stroke-miterlimit="10" stroke-linecap="round"/>
<path d="M17.8705 7.7C17.5605 7.61 17.2405 7.54 16.9105 7.5C15.9505 7.38 15.0305 7.45 14.1705 7.7C14.4605 6.96 15.1805 6.44 16.0205 6.44C16.8605 6.44 17.5805 6.96 17.8705 7.7Z" stroke="#1C1C1C" stroke-width="1.5" stroke-miterlimit="10" stroke-linecap="round" stroke-linejoin="round"/>
<path d="M19.0205 23.56C19.0205 25.21 17.6705 26.56 16.0205 26.56C15.2005 26.56 14.4405 26.22 13.9005 25.68C13.3605 25.14 13.0205 24.38 13.0205 23.56" stroke="#1C1C1C" stroke-width="1.5" stroke-miterlimit="10"/>
</svg>
