<svg width="46" height="47" viewBox="0 0 46 47" fill="none" xmlns="http://www.w3.org/2000/svg">
<rect x="0.000244141" y="0.5" width="46" height="46" rx="8" fill="#006D33"/>
<path d="M24.9336 29.3917C24.9336 29.9 24.6002 30.5667 24.1752 30.825L23.0002 31.5833C21.9086 32.2583 20.3919 31.5 20.3919 30.15V25.6917C20.3919 25.1 20.0586 24.3417 19.7169 23.925L16.5169 20.5583C16.0919 20.1333 15.7586 19.3833 15.7586 18.875V16.9417C15.7586 15.9333 16.5169 15.175 17.4419 15.175H28.5586C29.4836 15.175 30.2419 15.9333 30.2419 16.8583V18.7083C30.2419 19.3833 29.8169 20.225 29.4002 20.6417" stroke="white" stroke-width="1.25" stroke-miterlimit="10" stroke-linecap="round" stroke-linejoin="round"/>
<path d="M26.3919 27.2667C27.8647 27.2667 29.0586 26.0728 29.0586 24.6C29.0586 23.1273 27.8647 21.9333 26.3919 21.9333C24.9192 21.9333 23.7252 23.1273 23.7252 24.6C23.7252 26.0728 24.9192 27.2667 26.3919 27.2667Z" stroke="white" stroke-width="1.25" stroke-linecap="round" stroke-linejoin="round"/>
<path d="M29.5586 27.7667L28.7252 26.9333" stroke="white" stroke-width="1.25" stroke-linecap="round" stroke-linejoin="round"/>
</svg>
